{
  "accessors": [
    {
      "bufferView": 2,
      "componentType": 5126,
      "count": 3352,
      "max": [
        1.7360414266586304,
        1.021490454673767,
        0.5582005381584167
      ],
      "min": [
        -1.0705664157867432,
        -1.021490454673767,
        -0.5018522143363953
      ],
      "type": "VEC3"
    },
    {
      "bufferView": 2,
      "byteOffset": 40224,
      "componentType": 5126,
      "count": 3352,
      "max": [
        1.0,
        1.0,
        1.0
      ],
      "min": [
        -1.0,
        -1.0,
        -1.0
      ],
      "type": "VEC3"
    },
    {
      "bufferView": 3,
      "componentType": 5126,
      "count": 3352,
      "max": [
        1.0,
        1.0,
        1.0,
        1.0
      ],
      "min": [
        -1.0,
        -1.0,
        -1.0,
        1.0
      ],
      "type": "VEC4"
    },
    {
      "bufferView": 1,
      "componentType": 5126,
      "count": 3352,
      "max": [
        0.8768768906593323,
        0.9939808249473572
      ],
      "min": [
        0.006019209045916796,
        0.006019209045916796
      ],
      "type": "VEC2"
    },
    {
      "bufferView": 0,
      "componentType": 5125,
      "count": 10632,
      "type": "SCALAR"
    },
    {
      "bufferView": 2,
      "byteOffset": 80448,
      "componentType": 5126,
      "count": 577,
      "max": [
        0.10532616078853607,
        0.10532621294260025,
        0.7819211483001709
      ],
      "min": [
        -0.1053260937333107,
        -0.10532604157924652,
        0.531319797039032
      ],
      "type": "VEC3"
    },
    {
      "bufferView": 2,
      "byteOffset": 87372,
      "componentType": 5126,
      "count": 577,
      "max": [
        1.0,
        1.0,
        1.0
      ],
      "min": [
        -1.0,
        -1.0,
        -1.0
      ],
      "type": "VEC3"
    },
    {
      "bufferView": 3,
      "byteOffset": 53632,
      "componentType": 5126,
      "count": 577,
      "max": [
        0.9717673659324646,
        0.9988237023353577,
        0.996782660484314,
        1.0
      ],
      "min": [
        -0.9973396062850952,
        -0.9956916570663452,
        -0.9985668063163757,
        1.0
      ],
      "type": "VEC4"
    },
    {
      "bufferView": 1,
      "byteOffset": 26816,
      "componentType": 5126,
      "count": 577,
      "max": [
        0.5812490582466125,
        0.753960132598877
      ],
      "min": [
        0.2847357392311096,
        0.385212779045105
      ],
      "type": "VEC2"
    },
    {
      "bufferView": 0,
      "byteOffset": 42528,
      "componentType": 5125,
      "count": 3066,
      "type": "SCALAR"
    },
    {
      "bufferView": 2,
      "byteOffset": 94296,
      "componentType": 5126,
      "count": 735,
      "max": [
        3.3694369792938232,
        0.2189856320619583,
        0.4124949276447296
      ],
      "min": [
        -1.357543706893921,
        -0.2270781248807907,
        0.13603100180625916
      ],
      "type": "VEC3"
    },
    {
      "bufferView": 2,
      "byteOffset": 103116,
      "componentType": 5126,
      "count": 735,
      "max": [
        0.9999459981918335,
        0.9999839663505554,
        0.9999799728393555
      ],
      "min": [
        -0.9999427199363708,
        -0.9999973773956299,
        -0.9999750256538391
      ],
      "type": "VEC3"
    },
    {
      "bufferView": 3,
      "byteOffset": 62864,
      "componentType": 5126,
      "count": 735,
      "max": [
        1.0,
        0.9999629259109497,
        0.9899311661720276,
        1.0
      ],
      "min": [
        -1.0,
        -0.9999603033065796,
        -0.9900738000869751,
        1.0
      ],
      "type": "VEC4"
    },
    {
      "bufferView": 1,
      "byteOffset": 31432,
      "componentType": 5126,
      "count": 735,
      "max": [
        0.778619647026062,
        0.6584019064903259
      ],
      "min": [
        0.2901025414466858,
        0.006019209045916796
      ],
      "type": "VEC2"
    },
    {
      "bufferView": 0,
      "byteOffset": 54792,
      "componentType": 5125,
      "count": 3888,
      "type": "SCALAR"
    }
  ],
  "asset": {
    "extras": {
      "author": "GameDev Nick (https://sketchfab.com/GameDevNick)",
      "license": "CC-BY-4.0 (http://creativecommons.org/licenses/by/4.0/)",
      "source": "https://sketchfab.com/3d-models/portable-camping-pot-e0b68bb9bee54365a285c3af82917d27",
      "title": "Portable Camping Pot"
    },
    "generator": "Sketchfab-14.64.0",
    "version": "2.0"
  },
  "bufferViews": [
    {
      "buffer": 0,
      "byteLength": 70344,
      "name": "floatBufferViews",
      "target": 34963
    },
    {
      "buffer": 0,
      "byteLength": 37312,
      "byteOffset": 70344,
      "byteStride": 8,
      "name": "floatBufferViews",
      "target": 34962
    },
    {
      "buffer": 0,
      "byteLength": 111936,
      "byteOffset": 107656,
      "byteStride": 12,
      "name": "floatBufferViews",
      "target": 34962
    },
    {
      "buffer": 0,
      "byteLength": 74624,
      "byteOffset": 219592,
      "byteStride": 16,
      "name": "floatBufferViews",
      "target": 34962
    }
  ],
  "buffers": [
    {
      "byteLength": 294216,
      "uri": "scene.bin"
    }
  ],
  "extensionsUsed": [
    "KHR_materials_specular"
  ],
  "images": [
    {
      "uri": "textures/steel_baseColor.png"
    },
    {
      "uri": "textures/steel_metallicRoughness.png"
    },
    {
      "uri": "textures/steel_normal.png"
    },
    {
      "uri": "textures/rubber_baseColor.png"
    },
    {
      "uri": "textures/rubber_metallicRoughness.png"
    },
    {
      "uri": "textures/rubber_normal.png"
    },
    {
      "uri": "textures/handle_baseColor.png"
    },
    {
      "uri": "textures/handle_metallicRoughness.png"
    },
    {
      "uri": "textures/handle_normal.png"
    }
  ],
  "materials": [
    {
      "doubleSided": true,
      "extensions": {
        "KHR_materials_specular": {
          "specularColorFactor": [
            1.0,
            1.0,
            1.0
          ],
          "specularFactor": 0.5721889848744183
        }
      },
      "name": "steel",
      "normalTexture": {
        "index": 2
      },
      "pbrMetallicRoughness": {
        "baseColorTexture": {
          "index": 0
        },
        "metallicRoughnessTexture": {
          "index": 1
        }
      }
    },
    {
      "doubleSided": true,
      "name": "rubber",
      "normalTexture": {
        "index": 5
      },
      "pbrMetallicRoughness": {
        "baseColorTexture": {
          "index": 3
        },
        "metallicRoughnessTexture": {
          "index": 4
        }
      }
    },
    {
      "doubleSided": true,
      "name": "handle",
      "normalTexture": {
        "index": 8
      },
      "pbrMetallicRoughness": {
        "baseColorTexture": {
          "index": 6
        },
        "metallicRoughnessTexture": {
          "index": 7
        }
      }
    }
  ],
  "meshes": [
    {
      "name": "Pot_low_steel_0",
      "primitives": [
        {
          "attributes": {
            "NORMAL": 1,
            "POSITION": 0,
            "TANGENT": 2,
            "TEXCOORD_0": 3
          },
          "indices": 4,
          "material": 0,
          "mode": 4
        }
      ]
    },
    {
      "name": "Pot_low_rubber_0",
      "primitives": [
        {
          "attributes": {
            "NORMAL": 6,
            "POSITION": 5,
            "TANGENT": 7,
            "TEXCOORD_0": 8
          },
          "indices": 9,
          "material": 1,
          "mode": 4
        }
      ]
    },
    {
      "name": "Pot_low_handle_0",
      "primitives": [
        {
          "attributes": {
            "NORMAL": 11,
            "POSITION": 10,
            "TANGENT": 12,
            "TEXCOORD_0": 13
          },
          "indices": 14,
          "material": 2,
          "mode": 4
        }
      ]
    }
  ],
  "nodes": [
    {
      "children": [
        1
      ],
      "matrix": [
        0.9155934453010559,
        0.11428301036357871,
        0.3855230212211609,
        0.0,
        0.3533797562122345,
        0.2287793904542925,
        -0.9070737361907959,
        0.0,
        -0.19186283648014069,
        0.9667468070983887,
        0.16908361017704032,
        0.0,
        0.0,
        0.0,
        0.0,
        1.0
      ],
      "name": "Sketchfab_model"
    },
    {
      "children": [
        2
      ],
      "matrix": [
        1.0,
        0.0,
        0.0,
        0.0,
        0.0,
        0.0,
        1.0,
        0.0,
        0.0,
        -1.0,
        0.0,
        0.0,
        0.0,
        0.0,
        0.0,
        1.0
      ],
      "name": "d50002c74d0346008d33a7ab727f6346.fbx"
    },
    {
      "children": [
        3
      ],
      "name": "RootNode"
    },
    {
      "children": [
        4,
        5,
        6
      ],
      "matrix": [
        100.0,
        0.0,
        0.0,
        0.0,
        0.0,
        -1.629206793918314e-05,
        -99.99999999999868,
        0.0,
        0.0,
        99.99999999999868,
        -1.629206793918314e-05,
        0.0,
        0.0,
        0.0,
        0.0,
        1.0
      ],
      "name": "Pot_low"
    },
    {
      "mesh": 0,
      "name": "Pot_low_steel_0"
    },
    {
      "mesh": 1,
      "name": "Pot_low_rubber_0"
    },
    {
      "mesh": 2,
      "name": "Pot_low_handle_0"
    }
  ],
  "samplers": [
    {
      "magFilter": 9729,
      "minFilter": 9987,
      "wrapS": 10497,
      "wrapT": 10497
    }
  ],
  "scene": 0,
  "scenes": [
    {
      "name": "Sketchfab_Scene",
      "nodes": [
        0
      ]
    }
  ],
  "textures": [
    {
      "sampler": 0,
      "source": 0
    },
    {
      "sampler": 0,
      "source": 1
    },
    {
      "sampler": 0,
      "source": 2
    },
    {
      "sampler": 0,
      "source": 3
    },
    {
      "sampler": 0,
      "source": 4
    },
    {
      "sampler": 0,
      "source": 5
    },
    {
      "sampler": 0,
      "source": 6
    },
    {
      "sampler": 0,
      "source": 7
    },
    {
      "sampler": 0,
      "source": 8
    }
  ]
}
